#!OML:ASF F:\VICON\USERDATA\INSTALL\rory3\rory3.ASF
:FULLY-SPECIFIED
:DEGREES
1209
root 1.78182 17.6055 6.34713 -176.271 -0.233863 179.525
lowerback 3.71962 -0.136854 -4.39853
upperback 0.668788 -0.361856 0.993325
thorax -1.36482 -0.169925 3.51062
lowerneck -15.0362 -1.13089 -8.11987
upperneck 40.6665 8.19375 -2.06281
head 17.4785 3.56977 2.59233
rclavicle 1.18028e-016 4.47266e-015
rhumerus -30.9491 -5.5225 -81.3307
rradius 36.6301
rwrist 22.9488
rhand -22.4085 1.75073
rfingers 7.12502
rthumb 4.01428 -28.1912
lclavicle 1.18028e-016 4.47266e-015
lhumerus -32.399 0.310217 81.6628
lradius 53.0116
lwrist -19.2431
lhand -23.6683 20.5178
lfingers 7.12502
lthumb 2.7977 50.4792
rfemur -3.3226 2.89801 23.775
rtibia 40.6932
rfoot -16.5524 0.0210774
rtoes -2.93318
lfemur -23.8864 4.76965 -23.5042
ltibia 12.8417
lfoot 7.95143 -8.62279
ltoes -0.346109
1210
root 1.79281 17.5891 6.44114 -176.301 0.100209 179.533
lowerback 3.85074 -0.0991762 -3.98105
upperback 0.673739 -0.258696 0.887926
thorax -1.44398 -0.100133 3.16158
lowerneck -14.9458 -0.990705 -8.10717
upperneck 40.4884 8.32209 -2.04377
head 17.3451 3.62922 2.6067
rclavicle -2.16178e-015 -6.01324e-015
rhumerus -30.958 -6.67932 -81.0377
rradius 34.4503
rwrist 22.9385
rhand -22.1837 2.26316
rfingers 7.12502
rthumb 4.23136 -27.6746
lclavicle -2.16178e-015 -6.01324e-015
lhumerus -33.6243 1.68207 80.9101
lradius 51.7278
lwrist -19.6444
lhand -22.8743 20.5965
lfingers 7.12502
lthumb 3.56447 50.5465
rfemur -2.58699 2.86926 23.872
rtibia 38.9007
rfoot -17.6509 0.167947
rtoes -4.8965
lfemur -23.9895 4.65127 -23.3204
ltibia 12.5186
lfoot 8.07086 -7.99558
ltoes -1.05056
1211
root 1.79658 17.5693 6.54229 -176.263 0.469198 179.548
lowerback 3.95569 -0.00842613 -3.68941
upperback 0.725631 -0.125429 0.964143
thorax -1.46109 -0.0342134 3.06957
lowerneck -14.6056 -0.949859 -8.84361
upperneck 39.9444 8.18184 -1.66134
head 16.9032 3.51692 2.82627
rclavicle -4.13721e-015 2.78299e-015
rhumerus -30.7892 -7.71028 -80.448
rradius 32.4299
rwrist 23.0516
rhand -21.6094 2.34173
rfingers 7.12502
rthumb 4.78598 -27.5842
lclavicle -4.13721e-015 2.78299e-015
lhumerus -34.7514 3.25168 80.4365
lradius 50.4856
lwrist -19.9812
lhand -22.5394 20.4932
lfingers 7.12502
lthumb 3.88792 50.4375
rfemur -2.14559 2.7153 23.8998
rtibia 37.236
rfoot -18.6484 0.135583
rtoes -5.31407
lfemur -24.1428 4.30978 -23.0687
ltibia 12.1559
lfoot 8.0844 -7.0359
ltoes -1.76726
1212
root 1.80257 17.5533 6.64659 -176.087 0.873858 179.654
lowerback 4.07556 0.192007 -3.24197
upperback 0.688835 0.155406 0.928678
thorax -1.58761 0.106764 2.76632
lowerneck -13.5479 -1.07669 -10.1797
upperneck 38.8676 7.3594 -0.583117
head 15.9787 3.15352 3.26768
rclavicle 1.22998e-015 1.09332e-015
rhumerus -30.6919 -9.43362 -79.8052
rradius 30.3344
rwrist 23.8134
rhand -20.9606 2.28621
rfingers 7.12502
rthumb 5.41241 -27.6247
lclavicle 1.22998e-015 1.09332e-015
lhumerus -35.7103 4.49336 79.8549
lradius 49.054
lwrist -20.4769
lhand -22.3779 20.8621
lfingers 7.12502
lthumb 4.04382 50.8035
rfemur -2.00579 2.83963 24.0502
rtibia 35.7744
rfoot -19.5064 0.0555899
rtoes -3.37354
lfemur -24.5096 3.92966 -22.6819
ltibia 11.9357
lfoot 7.96363 -5.96755
ltoes -2.68753
1213
root 1.81314 17.5409 6.75206 -175.898 1.26112 179.917
lowerback 4.22452 0.424172 -2.64802
upperback 0.62069 0.484929 0.888308
thorax -1.75976 0.271215 2.37139
lowerneck -15.227 -0.974326 -7.9659
upperneck 40.2374 8.24638 -2.172
head 17.2896 3.57735 2.50362
rclavicle -4.05024e-015 -2.08724e-015
rhumerus -30.7533 -11.1876 -79.1633
rradius 28.431
rwrist 24.6147
rhand -20.5409 2.29974
rfingers 7.12502
rthumb 5.81764 -27.6004
lclavicle -4.05024e-015 -2.08724e-015
lhumerus -36.6406 5.4887 79.2785
lradius 47.5495
lwrist -20.4044
lhand -22.0183 21.2954
lfingers 7.12502
lthumb 4.39113 51.2298
rfemur -1.92277 2.98101 24.4381
rtibia 34.5762
rfoot -20.2012 -0.233821
rtoes -2.17955
lfemur -25.0009 3.72442 -22.1591
ltibia 11.9473
lfoot 7.70768 -5.15167
ltoes -4.45841
1214
root 1.82068 17.5273 6.85836 -175.809 1.6739 180.208
lowerback 4.37097 0.586504 -1.96534
upperback 0.640355 0.731476 0.854905
thorax -1.82768 0.391417 1.93758
lowerneck -14.0166 -1.05916 -9.30187
upperneck 39.0233 7.42882 -1.10019
head 16.2256 3.21801 2.93458
rclavicle 3.85145e-015 3.18055e-015
rhumerus -30.7497 -12.4407 -78.6999
rradius 26.7063
rwrist 25.2609
rhand -20.2216 1.87874
rfingers 7.12502
rthumb 6.12583 -28.0127
lclavicle 3.85145e-015 3.18055e-015
lhumerus -37.5567 6.76183 78.5996
lradius 46.0818
lwrist -19.9466
lhand -22.2669 21.533
lfingers 7.12502
lthumb 4.15104 51.4723
rfemur -1.81056 2.89715 24.8339
rtibia 33.6673
rfoot -20.9254 -0.577672
rtoes -2.28951
lfemur -25.3301 3.47951 -21.5673
ltibia 11.9231
lfoot 7.17019 -4.33025
ltoes -8.61982
1215
root 1.82735 17.519 6.96324 -175.665 2.18094 180.559
lowerback 4.48144 0.741858 -1.77961
upperback 0.632365 0.960359 1.27418
thorax -1.913 0.509378 2.2496
lowerneck -13.9854 -1.07487 -9.70483
upperneck 38.8511 7.55781 -1.25846
head 16.1309 3.19655 2.9467
rclavicle -9.74045e-015 4.96962e-015
rhumerus -30.7581 -13.1999 -77.7045
rradius 25.1311
rwrist 26.2613
rhand -20.0908 1.93518
rfingers 7.12502
rthumb 6.25211 -27.9526
lclavicle -9.74045e-015 4.96962e-015
lhumerus -38.5895 8.93556 78.1636
lradius 44.6733
lwrist -20.3487
lhand -21.8246 22.3009
lfingers 7.12502
lthumb 4.57811 52.2314
rfemur -1.94751 2.92724 25.2578
rtibia 32.9962
rfoot -21.5511 -0.826672
rtoes -2.52781
lfemur -25.6092 3.07889 -20.8086
ltibia 11.8261
lfoot 6.4705 -3.15628
ltoes -13.296
1216
root 1.83647 17.514 7.065 -175.514 2.68481 180.706
lowerback 4.50815 0.918256 -1.32612
upperback 0.668458 1.2174 1.206
thorax -1.89354 0.634515 1.90829
lowerneck -15.2081 -0.951283 -8.20029
upperneck 39.7527 8.20502 -2.3071
head 17.0198 3.4949 2.44463
rclavicle -1.38404e-014 3.97569e-015
rhumerus -30.8752 -14.9492 -77.0316
rradius 23.7183
rwrist 28.1028
rhand -19.803 2.29189
rfingers 7.12502
rthumb 6.53001 -27.5874
lclavicle -1.38404e-014 3.97569e-015
lhumerus -39.4813 10.7018 77.0751
lradius 43.5046
lwrist -21.1933
lhand -20.1149 23.8978
lfingers 7.12502
lthumb 6.22891 53.7862
rfemur -2.2689 2.99444 25.4677
rtibia 32.4867
rfoot -21.9891 -1.16582
rtoes -2.78787
lfemur -25.8696 2.54005 -20.2149
ltibia 11.6801
lfoot 5.76404 -1.75958
ltoes -14.9253
1217
root 1.84903 17.5052 7.16763 -175.363 3.10485 180.828
lowerback 4.58342 1.07608 -1.1767
upperback 0.666928 1.43922 1.29958
thorax -1.94565 0.746089 1.90529
lowerneck -14.0703 -1.05711 -9.41551
upperneck 38.5706 7.42484 -1.42179
head 16.025 3.1436 2.7881
rclavicle -2.20651e-014 -9.34288e-015
rhumerus -31.1237 -16.0469 -76.3621
rradius 22.8003
rwrist 29.236
rhand -19.1276 1.74926
rfingers 7.12502
rthumb 7.182 -28.1089
lclavicle -2.20651e-014 -9.34288e-015
lhumerus -40.5755 12.5846 76.1434
lradius 42.4971
lwrist -21.4068
lhand -18.8315 24.7419
lfingers 7.12502
lthumb 7.46778 54.5901
rfemur -2.64498 3.02993 25.6716
rtibia 32.0776
rfoot -22.3317 -1.54294
rtoes -3.01782
lfemur -26.1304 2.11295 -19.6955
ltibia 11.4519
lfoot 5.00068 -0.652552
ltoes -15.6211
1218
root 1.86049 17.4989 7.2683 -175.23 3.5936 180.872
lowerback 4.55716 1.26179 -1.06869
upperback 0.730815 1.69599 1.34627
thorax -1.8745 0.874028 1.87765
lowerneck -13.6805 -1.08337 -9.85208
upperneck 38.019 7.09265 -1.06315
head 15.6242 2.99437 2.91157
rclavicle -4.72114e-015 -1.05356e-014
rhumerus -31.341 -16.8783 -75.8708
rradius 22.231
rwrist 29.9
rhand -18.2028 0.784743
rfingers 7.12502
rthumb 8.07458 -29.041
lclavicle -4.72114e-015 -1.05356e-014
lhumerus -41.5517 14.3974 75.1637
lradius 41.3192
lwrist -20.8902
lhand -18.311 23.9926
lfingers 7.12502
lthumb 7.9702 53.8223
rfemur -2.98676 3.14154 25.7211
rtibia 31.7519
rfoot -22.7105 -1.45109
rtoes -1.7227
lfemur -26.2624 1.72885 -19.2731
ltibia 11.0759
lfoot 4.05352 0.458197
ltoes -17.6809
1219
root 1.87078 17.494 7.36726 -175.064 4.0958 180.927
lowerback 4.45075 1.43348 -0.850081
upperback 0.842048 1.93786 1.32521
thorax -1.70278 0.992981 1.72251
lowerneck -13.8902 -1.08327 -9.89216
upperneck 37.9789 6.97478 -0.848547
head 15.6398 2.94472 2.98973
rclavicle -1.54555e-014 2.38542e-015
rhumerus -31.544 -17.7522 -75.4802
rradius 21.7569
rwrist 31.0306
rhand -17.8137 0.356872
rfingers 7.12502
rthumb 8.45009 -29.4541
lclavicle -1.54555e-014 2.38542e-015
lhumerus -42.4655 16.1419 74.0647
lradius 40.2265
lwrist -20.3377
lhand -17.6184 23.3656
lfingers 7.12502
lthumb 8.63861 53.1688
rfemur -3.35659 3.2519 25.749
rtibia 31.4325
rfoot -23.0395 -1.16228
rtoes -1.16364
lfemur -26.4514 1.35037 -18.8583
ltibia 10.7751
lfoot 2.93008 1.5165
ltoes -19.3816
